<svg xmlns="http://www.w3.org/2000/svg" xmlns:xlink="https://www.w3.org/1999/xlink" id="aboutShape" viewBox="0 0 850.367 963.592"><defs><linearGradient id="linear-gradient" x1="0.189" y1="0.135" x2="0.914" y2="0.761" gradientUnits="objectBoundingBox"><stop offset="0" stop-color="#d8ece8"></stop><stop offset="1" stop-color="#dbebfa"></stop></linearGradient></defs><g id="Group_2685" data-name="Group 2685" transform="translate(99.097 134.081)"><path id="Path_14951" data-name="Path 14951" d="M398.871,11.052c295.3,269.375,432.917,302.089,438.979,491.786s-175.328,305.2-408.083,305.2S89.158,668.958,89.158,436.2,103.57-258.323,398.871,11.052Z" transform="translate(-137.491 -37.88)" fill="url(#linear-gradient)"></path><g id="Path_14956" data-name="Path 14956" transform="translate(-178.956 38.363) rotate(-7)" fill="none"><path d="M398.871,11.052c295.3,269.375,432.917,302.089,438.979,491.786s-175.328,305.2-408.083,305.2S89.158,668.958,89.158,436.2,103.57-258.323,398.871,11.052Z" stroke="none"></path><path d="M 245.0447387695313 -69.84625244140625 C 236.1353149414063 -69.84625244140625 227.4927368164063 -68.6202392578125 219.3572998046875 -66.20208740234375 C 211.4750366210938 -63.85931396484375 203.8480834960938 -60.33197021484375 196.6885986328125 -55.71795654296875 C 189.7528686523438 -51.24835205078125 183.0630493164063 -45.63507080078125 176.8047485351563 -39.03399658203125 C 170.7518310546875 -32.6494140625 164.9362182617188 -25.16546630859375 159.51953125 -16.78973388671875 C 154.2939453125 -8.7098388671875 149.296630859375 0.42120361328125 144.6660766601563 10.349609375 C 140.2123413085938 19.89892578125 135.97607421875 30.4476318359375 132.0747680664063 41.70294189453125 C 128.3345947265625 52.49282836914063 124.7996826171875 64.22830200195313 121.5682373046875 76.58349609375 C 118.481689453125 88.38442993164063 115.5869140625 101.0756225585938 112.9642333984375 114.3048095703125 C 108.1110229492188 138.7852172851563 103.9915771484375 166.1121520996094 100.7203369140625 195.5268249511719 C 97.83331298828125 221.4876098632813 95.51971435546875 249.87255859375 93.84423828125 279.8932189941406 C 92.4068603515625 305.6460266113281 91.41998291015625 332.4832153320313 90.8271484375 361.9384155273438 C 90.370361328125 384.6356201171875 90.15753173828125 408.2337646484375 90.15753173828125 436.2030944824219 C 90.15753173828125 554.47509765625 118.0064697265625 646.1708374023438 172.9307861328125 708.7432250976563 C 179.898193359375 716.6809692382813 187.40234375 724.246826171875 195.2344970703125 731.2305908203125 C 203.1107788085938 738.25390625 211.5374145507813 744.8832397460938 220.2803344726563 750.9346923828125 C 229.0753173828125 757.0221557617188 238.434326171875 762.6937255859375 248.0975341796875 767.7918701171875 C 257.8211669921875 772.9217529296875 268.1226196289063 777.613525390625 278.716064453125 781.7366943359375 C 289.3779296875 785.8865356445313 300.6317138671875 789.5758666992188 312.1647338867188 792.7021484375 C 323.7744750976563 795.84912109375 335.9899291992188 798.512939453125 348.4718017578125 800.6197509765625 C 361.0385131835938 802.7408447265625 374.224609375 804.3561401367188 387.6639404296875 805.4208374023438 C 401.1963500976563 806.4927978515625 415.36181640625 807.0364379882813 429.7670288085938 807.0364379882813 C 464.6217041015625 807.0364379882813 498.7666320800781 804.4202880859375 531.253662109375 799.2606811523438 C 563.47265625 794.1436157226563 594.28759765625 786.4898681640625 622.842529296875 776.5120239257813 C 651.4525146484375 766.5149536132813 677.9854125976563 754.1173706054688 701.7044677734375 739.6638793945313 C 713.6259765625 732.3992309570313 724.990234375 724.51416015625 735.4815673828125 716.2274780273438 C 746.0615234375 707.8705444335938 756.0003662109375 698.9105224609375 765.0218505859375 689.59619140625 C 776.9482421875 677.2825317382813 787.5794067382813 664.0349731445313 796.6201171875 650.2213745117188 C 805.818359375 636.1669311523438 813.5635375976563 621.2304077148438 819.6407470703125 605.8265380859375 C 822.7223510742188 598.0155029296875 825.4315795898438 589.9376220703125 827.6932983398438 581.8173828125 C 829.9796752929688 573.6083984375 831.8698120117188 565.1364135742188 833.3111572265625 556.63671875 C 834.769287109375 548.0392456054688 835.8073120117188 539.1823120117188 836.3966064453125 530.31201171875 C 836.9930419921875 521.3349609375 837.1458129882813 512.102294921875 836.8507690429688 502.8704223632813 C 836.5860595703125 494.587890625 836.0602416992188 486.4788208007813 835.287841796875 478.7684326171875 C 834.5169067382813 471.0711059570313 833.47412109375 463.5109558105469 832.1885986328125 456.2978820800781 C 830.9087524414063 449.1172180175781 829.3451538085938 442.037353515625 827.5408935546875 435.2550964355469 C 825.7499389648438 428.5224304199219 823.6610107421875 421.8541564941406 821.3322143554688 415.4352416992188 C 819.0274047851563 409.082275390625 816.4086303710938 402.7562866210938 813.5486450195313 396.6326904296875 C 810.727294921875 390.5917358398438 807.5734252929688 384.538818359375 804.1746215820313 378.6420288085938 C 797.4981079101563 367.0578918457031 789.7835693359375 355.81787109375 780.5902099609375 344.2797546386719 C 771.8942260742188 333.3656005859375 762.03515625 322.3912353515625 750.4498291015625 310.7296142578125 C 739.8478393554688 300.0577392578125 727.8055419921875 288.8245544433594 713.635009765625 276.3877563476563 C 686.83447265625 252.8664245605469 655.6578369140625 227.8688354492188 619.55810546875 198.9240112304688 C 589.6929931640625 174.97802734375 555.8431396484375 147.8370971679688 518.9783935546875 117.0730895996094 C 476.5864868164063 81.69696044921875 437.07861328125 47.25881958007813 398.1971435546875 11.79083251953125 C 382.6817016601563 -2.36236572265625 367.5344848632813 -14.8426513671875 353.1762084960938 -25.30316162109375 C 339.22900390625 -35.4642333984375 325.6434326171875 -43.9986572265625 312.796875 -50.6690673828125 C 300.3424682617188 -57.1358642578125 288.2420654296875 -62.0277099609375 276.8318481445313 -65.2086181640625 C 271.2658081054688 -66.7603759765625 265.7482299804688 -67.93719482421875 260.4322509765625 -68.70648193359375 C 255.2059326171875 -69.4627685546875 250.0288696289063 -69.84625244140625 245.0447387695313 -69.84625244140625 M 245.0447387695313 -70.84619140625 C 285.1615600585938 -70.84619140625 335.5536499023438 -46.7064208984375 398.8710327148438 11.052001953125 C 694.1716918945313 280.4269409179688 831.7877197265625 313.1406860351563 837.8502197265625 502.8384399414063 C 843.9127807617188 692.5361328125 662.5218505859375 808.0364379882813 429.7670288085938 808.0364379882813 C 197.0120849609375 808.0364379882813 89.15753173828125 668.9580078125 89.15753173828125 436.2030944824219 C 89.15753173828125 253.3547668457031 98.06378173828125 -70.84619140625 245.0447387695313 -70.84619140625 Z" stroke="none" fill="#b9d7e2"></path></g></g></svg>