<svg xmlns="http://www.w3.org/2000/svg" id="Group_2677" data-name="Group 2677" viewBox="0 0 274.78 300.115"><circle id="Ellipse_838" data-name="Ellipse 838" cx="4.872" cy="4.872" r="4.872" transform="translate(0 133.817)" fill="currentColor"></circle><circle id="Ellipse_915" data-name="Ellipse 915" cx="4.872" cy="4.872" r="4.872" transform="translate(132.518 133.817)" fill="currentColor"></circle><circle id="Ellipse_999" data-name="Ellipse 999" cx="4.872" cy="4.872" r="4.872" transform="translate(265.036 133.817)" fill="currentColor"></circle><circle id="Ellipse_867" data-name="Ellipse 867" cx="4.872" cy="4.872" r="4.872" transform="translate(66.259 133.817)" fill="currentColor"></circle><circle id="Ellipse_925" data-name="Ellipse 925" cx="4.872" cy="4.872" r="4.872" transform="translate(198.777 133.817)" fill="currentColor"></circle><circle id="Ellipse_839" data-name="Ellipse 839" cx="4.872" cy="4.872" r="4.872" transform="translate(22.086 133.817)" fill="currentColor"></circle><circle id="Ellipse_916" data-name="Ellipse 916" cx="4.872" cy="4.872" r="4.872" transform="translate(154.604 133.817)" fill="currentColor"></circle><circle id="Ellipse_875" data-name="Ellipse 875" cx="4.872" cy="4.872" r="4.872" transform="translate(88.345 133.817)" fill="currentColor"></circle><circle id="Ellipse_926" data-name="Ellipse 926" cx="4.872" cy="4.872" r="4.872" transform="translate(220.864 133.817)" fill="currentColor"></circle><circle id="Ellipse_853" data-name="Ellipse 853" cx="4.872" cy="4.872" r="4.872" transform="translate(44.173 133.817)" fill="currentColor"></circle><circle id="Ellipse_927" data-name="Ellipse 927" cx="4.872" cy="4.872" r="4.872" transform="translate(176.691 133.817)" fill="currentColor"></circle><circle id="Ellipse_885" data-name="Ellipse 885" cx="4.872" cy="4.872" r="4.872" transform="translate(110.432 133.817)" fill="currentColor"></circle><circle id="Ellipse_928" data-name="Ellipse 928" cx="4.872" cy="4.872" r="4.872" transform="translate(242.95 133.817)" fill="currentColor"></circle><circle id="Ellipse_830" data-name="Ellipse 830" cx="4.872" cy="4.872" r="4.872" transform="translate(0 44.822)" fill="currentColor"></circle><circle id="Ellipse_909" data-name="Ellipse 909" cx="4.872" cy="4.872" r="4.872" transform="translate(132.518 44.822)" fill="currentColor"></circle><circle id="Ellipse_993" data-name="Ellipse 993" cx="4.872" cy="4.872" r="4.872" transform="translate(265.036 44.822)" fill="currentColor"></circle><circle id="Ellipse_868" data-name="Ellipse 868" cx="4.872" cy="4.872" r="4.872" transform="translate(66.259 44.822)" fill="currentColor"></circle><circle id="Ellipse_929" data-name="Ellipse 929" cx="4.872" cy="4.872" r="4.872" transform="translate(198.777 44.822)" fill="currentColor"></circle><circle id="Ellipse_840" data-name="Ellipse 840" cx="4.872" cy="4.872" r="4.872" transform="translate(22.086 44.822)" fill="currentColor"></circle><circle id="Ellipse_917" data-name="Ellipse 917" cx="4.872" cy="4.872" r="4.872" transform="translate(154.604 44.822)" fill="currentColor"></circle><circle id="Ellipse_876" data-name="Ellipse 876" cx="4.872" cy="4.872" r="4.872" transform="translate(88.345 44.822)" fill="currentColor"></circle><circle id="Ellipse_930" data-name="Ellipse 930" cx="4.872" cy="4.872" r="4.872" transform="translate(220.864 44.822)" fill="currentColor"></circle><circle id="Ellipse_854" data-name="Ellipse 854" cx="4.872" cy="4.872" r="4.872" transform="translate(44.173 44.822)" fill="currentColor"></circle><circle id="Ellipse_931" data-name="Ellipse 931" cx="4.872" cy="4.872" r="4.872" transform="translate(176.691 44.822)" fill="currentColor"></circle><circle id="Ellipse_886" data-name="Ellipse 886" cx="4.872" cy="4.872" r="4.872" transform="translate(110.432 44.822)" fill="currentColor"></circle><circle id="Ellipse_932" data-name="Ellipse 932" cx="4.872" cy="4.872" r="4.872" transform="translate(242.95 44.822)" fill="currentColor"></circle><circle id="Ellipse_834" data-name="Ellipse 834" cx="4.872" cy="4.872" r="4.872" transform="translate(0 223.462)" fill="currentColor"></circle><circle id="Ellipse_933" data-name="Ellipse 933" cx="4.872" cy="4.872" r="4.872" transform="translate(132.518 223.462)" fill="currentColor"></circle><circle id="Ellipse_1017" data-name="Ellipse 1017" cx="4.872" cy="4.872" r="4.872" transform="translate(265.036 223.462)" fill="currentColor"></circle><circle id="Ellipse_897" data-name="Ellipse 897" cx="4.872" cy="4.872" r="4.872" transform="translate(66.259 223.462)" fill="currentColor"></circle><circle id="Ellipse_934" data-name="Ellipse 934" cx="4.872" cy="4.872" r="4.872" transform="translate(198.777 223.462)" fill="currentColor"></circle><circle id="Ellipse_848" data-name="Ellipse 848" cx="4.872" cy="4.872" r="4.872" transform="translate(22.086 223.462)" fill="currentColor"></circle><circle id="Ellipse_935" data-name="Ellipse 935" cx="4.872" cy="4.872" r="4.872" transform="translate(154.604 223.462)" fill="currentColor"></circle><circle id="Ellipse_898" data-name="Ellipse 898" cx="4.872" cy="4.872" r="4.872" transform="translate(88.345 223.462)" fill="currentColor"></circle><circle id="Ellipse_936" data-name="Ellipse 936" cx="4.872" cy="4.872" r="4.872" transform="translate(220.864 223.462)" fill="currentColor"></circle><circle id="Ellipse_862" data-name="Ellipse 862" cx="4.872" cy="4.872" r="4.872" transform="translate(44.173 223.462)" fill="currentColor"></circle><circle id="Ellipse_937" data-name="Ellipse 937" cx="4.872" cy="4.872" r="4.872" transform="translate(176.691 223.462)" fill="currentColor"></circle><circle id="Ellipse_899" data-name="Ellipse 899" cx="4.872" cy="4.872" r="4.872" transform="translate(110.432 223.462)" fill="currentColor"></circle><circle id="Ellipse_938" data-name="Ellipse 938" cx="4.872" cy="4.872" r="4.872" transform="translate(242.95 223.462)" fill="currentColor"></circle><circle id="Ellipse_826" data-name="Ellipse 826" cx="4.872" cy="4.872" r="4.872" transform="translate(0 0)" fill="currentColor"></circle><circle id="Ellipse_910" data-name="Ellipse 910" cx="4.872" cy="4.872" r="4.872" transform="translate(132.518 0)" fill="currentColor"></circle><circle id="Ellipse_994" data-name="Ellipse 994" cx="4.872" cy="4.872" r="4.872" transform="translate(265.036 0)" fill="currentColor"></circle><circle id="Ellipse_869" data-name="Ellipse 869" cx="4.872" cy="4.872" r="4.872" transform="translate(66.259 0)" fill="currentColor"></circle><circle id="Ellipse_939" data-name="Ellipse 939" cx="4.872" cy="4.872" r="4.872" transform="translate(198.777 0)" fill="currentColor"></circle><circle id="Ellipse_841" data-name="Ellipse 841" cx="4.872" cy="4.872" r="4.872" transform="translate(22.086 0)" fill="currentColor"></circle><circle id="Ellipse_918" data-name="Ellipse 918" cx="4.872" cy="4.872" r="4.872" transform="translate(154.604 0)" fill="currentColor"></circle><circle id="Ellipse_877" data-name="Ellipse 877" cx="4.872" cy="4.872" r="4.872" transform="translate(88.345 0)" fill="currentColor"></circle><circle id="Ellipse_940" data-name="Ellipse 940" cx="4.872" cy="4.872" r="4.872" transform="translate(220.864 0)" fill="currentColor"></circle><circle id="Ellipse_855" data-name="Ellipse 855" cx="4.872" cy="4.872" r="4.872" transform="translate(44.173 0)" fill="currentColor"></circle><circle id="Ellipse_941" data-name="Ellipse 941" cx="4.872" cy="4.872" r="4.872" transform="translate(176.691 0)" fill="currentColor"></circle><circle id="Ellipse_887" data-name="Ellipse 887" cx="4.872" cy="4.872" r="4.872" transform="translate(110.432 0)" fill="currentColor"></circle><circle id="Ellipse_942" data-name="Ellipse 942" cx="4.872" cy="4.872" r="4.872" transform="translate(242.95 0)" fill="currentColor"></circle><circle id="Ellipse_836" data-name="Ellipse 836" cx="4.872" cy="4.872" r="4.872" transform="translate(0 178.64)" fill="currentColor"></circle><circle id="Ellipse_943" data-name="Ellipse 943" cx="4.872" cy="4.872" r="4.872" transform="translate(132.518 178.64)" fill="currentColor"></circle><circle id="Ellipse_1027" data-name="Ellipse 1027" cx="4.872" cy="4.872" r="4.872" transform="translate(265.036 178.64)" fill="currentColor"></circle><circle id="Ellipse_878" data-name="Ellipse 878" cx="4.872" cy="4.872" r="4.872" transform="translate(66.259 178.64)" fill="currentColor"></circle><circle id="Ellipse_944" data-name="Ellipse 944" cx="4.872" cy="4.872" r="4.872" transform="translate(198.777 178.64)" fill="currentColor"></circle><circle id="Ellipse_847" data-name="Ellipse 847" cx="4.872" cy="4.872" r="4.872" transform="translate(22.086 178.64)" fill="currentColor"></circle><circle id="Ellipse_945" data-name="Ellipse 945" cx="4.872" cy="4.872" r="4.872" transform="translate(154.604 178.64)" fill="currentColor"></circle><circle id="Ellipse_879" data-name="Ellipse 879" cx="4.872" cy="4.872" r="4.872" transform="translate(88.345 178.64)" fill="currentColor"></circle><circle id="Ellipse_946" data-name="Ellipse 946" cx="4.872" cy="4.872" r="4.872" transform="translate(220.864 178.64)" fill="currentColor"></circle><circle id="Ellipse_861" data-name="Ellipse 861" cx="4.872" cy="4.872" r="4.872" transform="translate(44.173 178.64)" fill="currentColor"></circle><circle id="Ellipse_947" data-name="Ellipse 947" cx="4.872" cy="4.872" r="4.872" transform="translate(176.691 178.64)" fill="currentColor"></circle><circle id="Ellipse_888" data-name="Ellipse 888" cx="4.872" cy="4.872" r="4.872" transform="translate(110.432 178.64)" fill="currentColor"></circle><circle id="Ellipse_948" data-name="Ellipse 948" cx="4.872" cy="4.872" r="4.872" transform="translate(242.95 178.64)" fill="currentColor"></circle><circle id="Ellipse_828" data-name="Ellipse 828" cx="4.872" cy="4.872" r="4.872" transform="translate(0 89.645)" fill="currentColor"></circle><circle id="Ellipse_911" data-name="Ellipse 911" cx="4.872" cy="4.872" r="4.872" transform="translate(132.518 89.645)" fill="currentColor"></circle><circle id="Ellipse_995" data-name="Ellipse 995" cx="4.872" cy="4.872" r="4.872" transform="translate(265.036 89.645)" fill="currentColor"></circle><circle id="Ellipse_870" data-name="Ellipse 870" cx="4.872" cy="4.872" r="4.872" transform="translate(66.259 89.645)" fill="currentColor"></circle><circle id="Ellipse_949" data-name="Ellipse 949" cx="4.872" cy="4.872" r="4.872" transform="translate(198.777 89.645)" fill="currentColor"></circle><circle id="Ellipse_842" data-name="Ellipse 842" cx="4.872" cy="4.872" r="4.872" transform="translate(22.086 89.645)" fill="currentColor"></circle><circle id="Ellipse_919" data-name="Ellipse 919" cx="4.872" cy="4.872" r="4.872" transform="translate(154.604 89.645)" fill="currentColor"></circle><circle id="Ellipse_880" data-name="Ellipse 880" cx="4.872" cy="4.872" r="4.872" transform="translate(88.345 89.645)" fill="currentColor"></circle><circle id="Ellipse_950" data-name="Ellipse 950" cx="4.872" cy="4.872" r="4.872" transform="translate(220.864 89.645)" fill="currentColor"></circle><circle id="Ellipse_856" data-name="Ellipse 856" cx="4.872" cy="4.872" r="4.872" transform="translate(44.173 89.645)" fill="currentColor"></circle><circle id="Ellipse_951" data-name="Ellipse 951" cx="4.872" cy="4.872" r="4.872" transform="translate(176.691 89.645)" fill="currentColor"></circle><circle id="Ellipse_889" data-name="Ellipse 889" cx="4.872" cy="4.872" r="4.872" transform="translate(110.432 89.645)" fill="currentColor"></circle><circle id="Ellipse_952" data-name="Ellipse 952" cx="4.872" cy="4.872" r="4.872" transform="translate(242.95 89.645)" fill="currentColor"></circle><circle id="Ellipse_832" data-name="Ellipse 832" cx="4.872" cy="4.872" r="4.872" transform="translate(0 268.284)" fill="currentColor"></circle><circle id="Ellipse_953" data-name="Ellipse 953" cx="4.872" cy="4.872" r="4.872" transform="translate(132.518 268.284)" fill="currentColor"></circle><circle id="Ellipse_1037" data-name="Ellipse 1037" cx="4.872" cy="4.872" r="4.872" transform="translate(265.036 268.284)" fill="currentColor"></circle><circle id="Ellipse_903" data-name="Ellipse 903" cx="4.872" cy="4.872" r="4.872" transform="translate(66.259 268.284)" fill="currentColor"></circle><circle id="Ellipse_954" data-name="Ellipse 954" cx="4.872" cy="4.872" r="4.872" transform="translate(198.777 268.284)" fill="currentColor"></circle><circle id="Ellipse_850" data-name="Ellipse 850" cx="4.872" cy="4.872" r="4.872" transform="translate(22.086 268.284)" fill="currentColor"></circle><circle id="Ellipse_955" data-name="Ellipse 955" cx="4.872" cy="4.872" r="4.872" transform="translate(154.604 268.284)" fill="currentColor"></circle><circle id="Ellipse_904" data-name="Ellipse 904" cx="4.872" cy="4.872" r="4.872" transform="translate(88.345 268.284)" fill="currentColor"></circle><circle id="Ellipse_956" data-name="Ellipse 956" cx="4.872" cy="4.872" r="4.872" transform="translate(220.864 268.284)" fill="currentColor"></circle><circle id="Ellipse_864" data-name="Ellipse 864" cx="4.872" cy="4.872" r="4.872" transform="translate(44.173 268.284)" fill="currentColor"></circle><circle id="Ellipse_957" data-name="Ellipse 957" cx="4.872" cy="4.872" r="4.872" transform="translate(176.691 268.284)" fill="currentColor"></circle><circle id="Ellipse_905" data-name="Ellipse 905" cx="4.872" cy="4.872" r="4.872" transform="translate(110.432 268.284)" fill="currentColor"></circle><circle id="Ellipse_958" data-name="Ellipse 958" cx="4.872" cy="4.872" r="4.872" transform="translate(242.95 268.284)" fill="currentColor"></circle><circle id="Ellipse_837" data-name="Ellipse 837" cx="4.872" cy="4.872" r="4.872" transform="translate(0 156.553)" fill="currentColor"></circle><circle id="Ellipse_920" data-name="Ellipse 920" cx="4.872" cy="4.872" r="4.872" transform="translate(132.518 156.553)" fill="currentColor"></circle><circle id="Ellipse_1004" data-name="Ellipse 1004" cx="4.872" cy="4.872" r="4.872" transform="translate(265.036 156.553)" fill="currentColor"></circle><circle id="Ellipse_871" data-name="Ellipse 871" cx="4.872" cy="4.872" r="4.872" transform="translate(66.259 156.553)" fill="currentColor"></circle><circle id="Ellipse_959" data-name="Ellipse 959" cx="4.872" cy="4.872" r="4.872" transform="translate(198.777 156.553)" fill="currentColor"></circle><circle id="Ellipse_843" data-name="Ellipse 843" cx="4.872" cy="4.872" r="4.872" transform="translate(22.086 156.553)" fill="currentColor"></circle><circle id="Ellipse_921" data-name="Ellipse 921" cx="4.872" cy="4.872" r="4.872" transform="translate(154.604 156.553)" fill="currentColor"></circle><circle id="Ellipse_881" data-name="Ellipse 881" cx="4.872" cy="4.872" r="4.872" transform="translate(88.345 156.553)" fill="currentColor"></circle><circle id="Ellipse_960" data-name="Ellipse 960" cx="4.872" cy="4.872" r="4.872" transform="translate(220.864 156.553)" fill="currentColor"></circle><circle id="Ellipse_857" data-name="Ellipse 857" cx="4.872" cy="4.872" r="4.872" transform="translate(44.173 156.553)" fill="currentColor"></circle><circle id="Ellipse_961" data-name="Ellipse 961" cx="4.872" cy="4.872" r="4.872" transform="translate(176.691 156.553)" fill="currentColor"></circle><circle id="Ellipse_890" data-name="Ellipse 890" cx="4.872" cy="4.872" r="4.872" transform="translate(110.432 156.553)" fill="currentColor"></circle><circle id="Ellipse_962" data-name="Ellipse 962" cx="4.872" cy="4.872" r="4.872" transform="translate(242.95 156.553)" fill="currentColor"></circle><circle id="Ellipse_829" data-name="Ellipse 829" cx="4.872" cy="4.872" r="4.872" transform="translate(0 66.909)" fill="currentColor"></circle><circle id="Ellipse_912" data-name="Ellipse 912" cx="4.872" cy="4.872" r="4.872" transform="translate(132.518 66.909)" fill="currentColor"></circle><circle id="Ellipse_996" data-name="Ellipse 996" cx="4.872" cy="4.872" r="4.872" transform="translate(265.036 66.909)" fill="currentColor"></circle><circle id="Ellipse_872" data-name="Ellipse 872" cx="4.872" cy="4.872" r="4.872" transform="translate(66.259 66.909)" fill="currentColor"></circle><circle id="Ellipse_963" data-name="Ellipse 963" cx="4.872" cy="4.872" r="4.872" transform="translate(198.777 66.909)" fill="currentColor"></circle><circle id="Ellipse_844" data-name="Ellipse 844" cx="4.872" cy="4.872" r="4.872" transform="translate(22.086 66.909)" fill="currentColor"></circle><circle id="Ellipse_922" data-name="Ellipse 922" cx="4.872" cy="4.872" r="4.872" transform="translate(154.604 66.909)" fill="currentColor"></circle><circle id="Ellipse_882" data-name="Ellipse 882" cx="4.872" cy="4.872" r="4.872" transform="translate(88.345 66.909)" fill="currentColor"></circle><circle id="Ellipse_964" data-name="Ellipse 964" cx="4.872" cy="4.872" r="4.872" transform="translate(220.864 66.909)" fill="currentColor"></circle><circle id="Ellipse_858" data-name="Ellipse 858" cx="4.872" cy="4.872" r="4.872" transform="translate(44.173 66.909)" fill="currentColor"></circle><circle id="Ellipse_965" data-name="Ellipse 965" cx="4.872" cy="4.872" r="4.872" transform="translate(176.691 66.909)" fill="currentColor"></circle><circle id="Ellipse_891" data-name="Ellipse 891" cx="4.872" cy="4.872" r="4.872" transform="translate(110.432 66.909)" fill="currentColor"></circle><circle id="Ellipse_966" data-name="Ellipse 966" cx="4.872" cy="4.872" r="4.872" transform="translate(242.95 66.909)" fill="currentColor"></circle><circle id="Ellipse_833" data-name="Ellipse 833" cx="4.872" cy="4.872" r="4.872" transform="translate(0 245.548)" fill="currentColor"></circle><circle id="Ellipse_967" data-name="Ellipse 967" cx="4.872" cy="4.872" r="4.872" transform="translate(132.518 245.548)" fill="currentColor"></circle><circle id="Ellipse_1051" data-name="Ellipse 1051" cx="4.872" cy="4.872" r="4.872" transform="translate(265.036 245.548)" fill="currentColor"></circle><circle id="Ellipse_900" data-name="Ellipse 900" cx="4.872" cy="4.872" r="4.872" transform="translate(66.259 245.548)" fill="currentColor"></circle><circle id="Ellipse_968" data-name="Ellipse 968" cx="4.872" cy="4.872" r="4.872" transform="translate(198.777 245.548)" fill="currentColor"></circle><circle id="Ellipse_851" data-name="Ellipse 851" cx="4.872" cy="4.872" r="4.872" transform="translate(22.086 245.548)" fill="currentColor"></circle><circle id="Ellipse_969" data-name="Ellipse 969" cx="4.872" cy="4.872" r="4.872" transform="translate(154.604 245.548)" fill="currentColor"></circle><circle id="Ellipse_901" data-name="Ellipse 901" cx="4.872" cy="4.872" r="4.872" transform="translate(88.345 245.548)" fill="currentColor"></circle><circle id="Ellipse_970" data-name="Ellipse 970" cx="4.872" cy="4.872" r="4.872" transform="translate(220.864 245.548)" fill="currentColor"></circle><circle id="Ellipse_865" data-name="Ellipse 865" cx="4.872" cy="4.872" r="4.872" transform="translate(44.173 245.548)" fill="currentColor"></circle><circle id="Ellipse_971" data-name="Ellipse 971" cx="4.872" cy="4.872" r="4.872" transform="translate(176.691 245.548)" fill="currentColor"></circle><circle id="Ellipse_902" data-name="Ellipse 902" cx="4.872" cy="4.872" r="4.872" transform="translate(110.432 245.548)" fill="currentColor"></circle><circle id="Ellipse_972" data-name="Ellipse 972" cx="4.872" cy="4.872" r="4.872" transform="translate(242.95 245.548)" fill="currentColor"></circle><circle id="Ellipse_825" data-name="Ellipse 825" cx="4.872" cy="4.872" r="4.872" transform="translate(0 22.086)" fill="currentColor"></circle><circle id="Ellipse_913" data-name="Ellipse 913" cx="4.872" cy="4.872" r="4.872" transform="translate(132.518 22.086)" fill="currentColor"></circle><circle id="Ellipse_997" data-name="Ellipse 997" cx="4.872" cy="4.872" r="4.872" transform="translate(265.036 22.086)" fill="currentColor"></circle><circle id="Ellipse_873" data-name="Ellipse 873" cx="4.872" cy="4.872" r="4.872" transform="translate(66.259 22.086)" fill="currentColor"></circle><circle id="Ellipse_973" data-name="Ellipse 973" cx="4.872" cy="4.872" r="4.872" transform="translate(198.777 22.086)" fill="currentColor"></circle><circle id="Ellipse_845" data-name="Ellipse 845" cx="4.872" cy="4.872" r="4.872" transform="translate(22.086 22.086)" fill="currentColor"></circle><circle id="Ellipse_923" data-name="Ellipse 923" cx="4.872" cy="4.872" r="4.872" transform="translate(154.604 22.086)" fill="currentColor"></circle><circle id="Ellipse_883" data-name="Ellipse 883" cx="4.872" cy="4.872" r="4.872" transform="translate(88.345 22.086)" fill="currentColor"></circle><circle id="Ellipse_974" data-name="Ellipse 974" cx="4.872" cy="4.872" r="4.872" transform="translate(220.864 22.086)" fill="currentColor"></circle><circle id="Ellipse_859" data-name="Ellipse 859" cx="4.872" cy="4.872" r="4.872" transform="translate(44.173 22.086)" fill="currentColor"></circle><circle id="Ellipse_975" data-name="Ellipse 975" cx="4.872" cy="4.872" r="4.872" transform="translate(176.691 22.086)" fill="currentColor"></circle><circle id="Ellipse_892" data-name="Ellipse 892" cx="4.872" cy="4.872" r="4.872" transform="translate(110.432 22.086)" fill="currentColor"></circle><circle id="Ellipse_976" data-name="Ellipse 976" cx="4.872" cy="4.872" r="4.872" transform="translate(242.95 22.086)" fill="currentColor"></circle><circle id="Ellipse_835" data-name="Ellipse 835" cx="4.872" cy="4.872" r="4.872" transform="translate(0 200.726)" fill="currentColor"></circle><circle id="Ellipse_977" data-name="Ellipse 977" cx="4.872" cy="4.872" r="4.872" transform="translate(132.518 200.726)" fill="currentColor"></circle><circle id="Ellipse_1061" data-name="Ellipse 1061" cx="4.872" cy="4.872" r="4.872" transform="translate(265.036 200.726)" fill="currentColor"></circle><circle id="Ellipse_893" data-name="Ellipse 893" cx="4.872" cy="4.872" r="4.872" transform="translate(66.259 200.726)" fill="currentColor"></circle><circle id="Ellipse_978" data-name="Ellipse 978" cx="4.872" cy="4.872" r="4.872" transform="translate(198.777 200.726)" fill="currentColor"></circle><circle id="Ellipse_849" data-name="Ellipse 849" cx="4.872" cy="4.872" r="4.872" transform="translate(22.086 200.726)" fill="currentColor"></circle><circle id="Ellipse_979" data-name="Ellipse 979" cx="4.872" cy="4.872" r="4.872" transform="translate(154.604 200.726)" fill="currentColor"></circle><circle id="Ellipse_894" data-name="Ellipse 894" cx="4.872" cy="4.872" r="4.872" transform="translate(88.345 200.726)" fill="currentColor"></circle><circle id="Ellipse_980" data-name="Ellipse 980" cx="4.872" cy="4.872" r="4.872" transform="translate(220.864 200.726)" fill="currentColor"></circle><circle id="Ellipse_863" data-name="Ellipse 863" cx="4.872" cy="4.872" r="4.872" transform="translate(44.173 200.726)" fill="currentColor"></circle><circle id="Ellipse_981" data-name="Ellipse 981" cx="4.872" cy="4.872" r="4.872" transform="translate(176.691 200.726)" fill="currentColor"></circle><circle id="Ellipse_895" data-name="Ellipse 895" cx="4.872" cy="4.872" r="4.872" transform="translate(110.432 200.726)" fill="currentColor"></circle><circle id="Ellipse_982" data-name="Ellipse 982" cx="4.872" cy="4.872" r="4.872" transform="translate(242.95 200.726)" fill="currentColor"></circle><circle id="Ellipse_827" data-name="Ellipse 827" cx="4.872" cy="4.872" r="4.872" transform="translate(0 111.731)" fill="currentColor"></circle><circle id="Ellipse_914" data-name="Ellipse 914" cx="4.872" cy="4.872" r="4.872" transform="translate(132.518 111.731)" fill="currentColor"></circle><circle id="Ellipse_998" data-name="Ellipse 998" cx="4.872" cy="4.872" r="4.872" transform="translate(265.036 111.731)" fill="currentColor"></circle><circle id="Ellipse_874" data-name="Ellipse 874" cx="4.872" cy="4.872" r="4.872" transform="translate(66.259 111.731)" fill="currentColor"></circle><circle id="Ellipse_983" data-name="Ellipse 983" cx="4.872" cy="4.872" r="4.872" transform="translate(198.777 111.731)" fill="currentColor"></circle><circle id="Ellipse_846" data-name="Ellipse 846" cx="4.872" cy="4.872" r="4.872" transform="translate(22.086 111.731)" fill="currentColor"></circle><circle id="Ellipse_924" data-name="Ellipse 924" cx="4.872" cy="4.872" r="4.872" transform="translate(154.604 111.731)" fill="currentColor"></circle><circle id="Ellipse_884" data-name="Ellipse 884" cx="4.872" cy="4.872" r="4.872" transform="translate(88.345 111.731)" fill="currentColor"></circle><circle id="Ellipse_984" data-name="Ellipse 984" cx="4.872" cy="4.872" r="4.872" transform="translate(220.864 111.731)" fill="currentColor"></circle><circle id="Ellipse_860" data-name="Ellipse 860" cx="4.872" cy="4.872" r="4.872" transform="translate(44.173 111.731)" fill="currentColor"></circle><circle id="Ellipse_985" data-name="Ellipse 985" cx="4.872" cy="4.872" r="4.872" transform="translate(176.691 111.731)" fill="currentColor"></circle><circle id="Ellipse_896" data-name="Ellipse 896" cx="4.872" cy="4.872" r="4.872" transform="translate(110.432 111.731)" fill="currentColor"></circle><circle id="Ellipse_986" data-name="Ellipse 986" cx="4.872" cy="4.872" r="4.872" transform="translate(242.95 111.731)" fill="currentColor"></circle><circle id="Ellipse_831" data-name="Ellipse 831" cx="4.872" cy="4.872" r="4.872" transform="translate(0 290.371)" fill="currentColor"></circle><circle id="Ellipse_987" data-name="Ellipse 987" cx="4.872" cy="4.872" r="4.872" transform="translate(132.518 290.371)" fill="currentColor"></circle><circle id="Ellipse_1071" data-name="Ellipse 1071" cx="4.872" cy="4.872" r="4.872" transform="translate(265.036 290.371)" fill="currentColor"></circle><circle id="Ellipse_906" data-name="Ellipse 906" cx="4.872" cy="4.872" r="4.872" transform="translate(66.259 290.371)" fill="currentColor"></circle><circle id="Ellipse_988" data-name="Ellipse 988" cx="4.872" cy="4.872" r="4.872" transform="translate(198.777 290.371)" fill="currentColor"></circle><circle id="Ellipse_852" data-name="Ellipse 852" cx="4.872" cy="4.872" r="4.872" transform="translate(22.086 290.371)" fill="currentColor"></circle><circle id="Ellipse_989" data-name="Ellipse 989" cx="4.872" cy="4.872" r="4.872" transform="translate(154.604 290.371)" fill="currentColor"></circle><circle id="Ellipse_907" data-name="Ellipse 907" cx="4.872" cy="4.872" r="4.872" transform="translate(88.345 290.371)" fill="currentColor"></circle><circle id="Ellipse_990" data-name="Ellipse 990" cx="4.872" cy="4.872" r="4.872" transform="translate(220.864 290.371)" fill="currentColor"></circle><circle id="Ellipse_866" data-name="Ellipse 866" cx="4.872" cy="4.872" r="4.872" transform="translate(44.173 290.371)" fill="currentColor"></circle><circle id="Ellipse_991" data-name="Ellipse 991" cx="4.872" cy="4.872" r="4.872" transform="translate(176.691 290.371)" fill="currentColor"></circle><circle id="Ellipse_908" data-name="Ellipse 908" cx="4.872" cy="4.872" r="4.872" transform="translate(110.432 290.371)" fill="currentColor"></circle><circle id="Ellipse_992" data-name="Ellipse 992" cx="4.872" cy="4.872" r="4.872" transform="translate(242.95 290.371)" fill="currentColor"></circle></svg>