<svg xmlns="http://www.w3.org/2000/svg" viewBox="0 0 746.7 589.02"><defs><style>.cls-1{fill:#f9d5d3;}.cls-2{fill:#fce3de;}</style></defs><title>Asset 4</title><g id="Layer_2" data-name="Layer 2"><g id="Layer_1-2" data-name="Layer 1"><path class="cls-1" d="M262.91,521.17c24.95,29.48,51.75,64,90.2,67.56,23,2.15,45.71-7.84,64-21.94s33-32.17,48.61-49.22A607.24,607.24,0,0,1,700.07,359.2c17-6.35,36-13.47,43.56-29.92,6.27-13.6,2.39-30.29-6.56-42.3s-22.2-20.07-35.73-26.5a234,234,0,0,0-107-22.5c-18.54.55-40.07,2.2-52.45-11.6-10.28-11.45-9.5-29-5.62-43.9s10.29-29.61,9.25-45c-1.94-28.77-31.37-50.27-60.2-50.71s-55.67,15.71-76,36.15c-18.19,18.28-35.56,41.92-61.25,44.2-32.54,2.89-63.48-31-94-19.22C227,158.41,224,195.5,205.63,218c-16,19.61-42.83,26.71-68.09,28.1s-50.81-1.75-75.75,2.5-50.46,18.08-59,41.9c-8.09,22.67,1.91,49.06,19.89,65.06,26.94,24,64.17,20.67,93.93,39.21a625.08,625.08,0,0,1,97.54,75.08A621.23,621.23,0,0,1,262.91,521.17Z"></path><path class="cls-2" d="M624.46,194.76c7.55,1.53,15.35.85,23,.16l49.69-4.45c8.68-.78,18.71-2.39,23-10,5.06-9-1.31-20-8.1-27.76a178.74,178.74,0,0,0-44.13-36.47c-19.49-11.41-55.76-18.3-60.93,12C603.23,150.49,594.88,188.75,624.46,194.76Z"></path><path class="cls-2" d="M206.36,0c18.1.72,33.06,14.56,43,29.67,7.92,12,13.93,25.57,15,39.89,3.44,45.44-43.46,53.76-75,30.77C156.24,76.17,150.12-2.19,206.36,0Z"></path></g></g></svg>