<svg xmlns="http://www.w3.org/2000/svg" viewBox="0 0 986.99 445.39"><defs><style>.cls-1{opacity:0.65;}.cls-2{fill:#45c1ff;}</style></defs><title>Asset 31</title><g id="Layer_2" data-name="Layer 2"><g id="Layer_1-2" data-name="Layer 1"><g class="cls-1"><path class="cls-2" d="M6.48,315.6A6.49,6.49,0,0,1,1.9,304.53C15.05,291.38,25.51,288,34.73,285c9-2.92,16.71-5.44,27.67-16.4s13.48-18.7,16.4-27.67c3-9.23,6.4-19.68,19.56-32.84s23.61-16.55,32.83-19.55c9-2.92,16.72-5.44,27.67-16.4a6.48,6.48,0,0,1,9.17,9.17c-13.16,13.16-23.61,16.56-32.83,19.56-9,2.91-16.72,5.43-27.68,16.39S94,236,91.13,244.92c-3,9.22-6.4,19.67-19.56,32.83S48,294.31,38.74,297.31c-9,2.91-16.72,5.43-27.67,16.39A6.51,6.51,0,0,1,6.48,315.6Z"></path><path class="cls-2" d="M38.4,347.51a6.48,6.48,0,0,1-4.58-11.06c13.15-13.16,23.6-16.56,32.82-19.56,9-2.91,16.72-5.43,27.68-16.39s13.47-18.71,16.39-27.68c3-9.22,6.4-19.67,19.56-32.83s23.61-16.56,32.83-19.56c9-2.92,16.72-5.44,27.68-16.39A6.48,6.48,0,0,1,200,213.2c-13.16,13.16-23.61,16.56-32.84,19.56-9,2.92-16.71,5.44-27.67,16.4S126,267.86,123,276.83c-3,9.23-6.4,19.68-19.56,32.84s-23.6,16.55-32.83,19.55c-9,2.92-16.71,5.44-27.67,16.4A6.46,6.46,0,0,1,38.4,347.51Z"></path><path class="cls-2" d="M70.32,379.43a6.49,6.49,0,0,1-4.59-11.07c13.16-13.15,23.61-16.55,32.83-19.55,9-2.92,16.72-5.44,27.67-16.39s13.48-18.71,16.4-27.68c3-9.22,6.4-19.68,19.56-32.83S185.8,255.35,195,252.35c9-2.92,16.72-5.44,27.68-16.4a6.48,6.48,0,0,1,9.16,9.17c-13.15,13.16-23.61,16.56-32.83,19.56-9,2.92-16.72,5.44-27.67,16.4s-13.48,18.7-16.4,27.67c-3,9.22-6.4,19.68-19.56,32.83s-23.61,16.56-32.83,19.56c-9,2.92-16.71,5.44-27.67,16.39A6.44,6.44,0,0,1,70.32,379.43Z"></path><path class="cls-2" d="M102.23,411.35a6.49,6.49,0,0,1-4.58-11.07c13.15-13.16,23.61-16.56,32.83-19.55,9-2.92,16.71-5.44,27.67-16.4s13.48-18.7,16.4-27.67c3-9.23,6.4-19.68,19.55-32.84s23.61-16.55,32.84-19.55c9-2.92,16.71-5.44,27.67-16.4a6.48,6.48,0,0,1,9.17,9.17C250.62,290.19,240.17,293.6,231,296.6c-9,2.91-16.72,5.43-27.68,16.39s-13.48,18.71-16.39,27.68c-3,9.22-6.4,19.67-19.56,32.83s-23.61,16.56-32.83,19.56c-9,2.91-16.72,5.43-27.68,16.39A6.47,6.47,0,0,1,102.23,411.35Z"></path><path class="cls-2" d="M134.15,443.26a6.48,6.48,0,0,1-4.59-11.06c13.16-13.16,23.61-16.56,32.83-19.56,9-2.91,16.72-5.43,27.68-16.39s13.47-18.71,16.39-27.68c3-9.22,6.4-19.67,19.56-32.83s23.61-16.56,32.83-19.56c9-2.92,16.72-5.44,27.68-16.39A6.48,6.48,0,1,1,295.7,309c-13.16,13.16-23.61,16.56-32.84,19.56-9,2.92-16.71,5.44-27.67,16.4s-13.48,18.7-16.4,27.67c-3,9.23-6.4,19.68-19.56,32.84S175.63,422,166.4,425c-9,2.92-16.71,5.44-27.67,16.4A6.46,6.46,0,0,1,134.15,443.26Z"></path><path class="cls-2" d="M178.83,145.38a6.49,6.49,0,0,1-4.58-11.07c13.15-13.16,23.6-16.56,32.83-19.55,9-2.92,16.71-5.44,27.67-16.4s13.48-18.7,16.4-27.67c3-9.23,6.4-19.68,19.55-32.84S294.31,21.3,303.54,18.3c9-2.92,16.71-5.44,27.67-16.4a6.48,6.48,0,0,1,9.17,9.17c-13.16,13.15-23.61,16.56-32.83,19.55-9,2.92-16.72,5.44-27.68,16.4S266.39,65.73,263.48,74.7c-3,9.22-6.4,19.67-19.56,32.83s-23.61,16.56-32.83,19.56c-9,2.91-16.72,5.43-27.68,16.39A6.47,6.47,0,0,1,178.83,145.38Z"></path><path class="cls-2" d="M210.75,177.29a6.48,6.48,0,0,1-4.59-11.06c13.16-13.16,23.61-16.56,32.83-19.56,9-2.92,16.72-5.43,27.68-16.39s13.47-18.71,16.39-27.68c3-9.22,6.4-19.67,19.56-32.83s23.61-16.56,32.83-19.56c9-2.92,16.72-5.44,27.68-16.39A6.48,6.48,0,1,1,372.3,43c-13.16,13.16-23.61,16.56-32.84,19.56-9,2.92-16.71,5.44-27.67,16.4s-13.48,18.7-16.4,27.67c-3,9.23-6.4,19.68-19.56,32.84S252.23,156,243,159c-9,2.92-16.71,5.44-27.67,16.39A6.43,6.43,0,0,1,210.75,177.29Z"></path><path class="cls-2" d="M242.66,209.21a6.49,6.49,0,0,1-4.58-11.07c13.16-13.15,23.61-16.55,32.83-19.55,9-2.92,16.72-5.44,27.67-16.4s13.48-18.7,16.4-27.67c3-9.22,6.4-19.68,19.56-32.83s23.61-16.56,32.83-19.56c9-2.92,16.72-5.44,27.68-16.4a6.48,6.48,0,1,1,9.16,9.17c-13.15,13.16-23.61,16.56-32.83,19.56-9,2.92-16.72,5.44-27.68,16.39s-13.47,18.71-16.39,27.68c-3,9.22-6.4,19.68-19.56,32.83s-23.61,16.56-32.83,19.56c-9,2.91-16.72,5.43-27.67,16.39A6.47,6.47,0,0,1,242.66,209.21Z"></path><path class="cls-2" d="M274.58,241.13A6.49,6.49,0,0,1,270,230.06c13.15-13.16,23.6-16.56,32.83-19.56,9-2.91,16.71-5.43,27.67-16.39s13.48-18.7,16.39-27.67c3-9.23,6.41-19.68,19.56-32.84s23.61-16.56,32.84-19.55c9-2.92,16.71-5.44,27.67-16.4a6.48,6.48,0,0,1,9.17,9.17C423,120,412.52,123.37,403.3,126.37c-9,2.92-16.72,5.44-27.68,16.4s-13.48,18.71-16.39,27.68c-3,9.22-6.41,19.67-19.56,32.83s-23.61,16.56-32.83,19.55c-9,2.92-16.72,5.44-27.68,16.4A6.47,6.47,0,0,1,274.58,241.13Z"></path><path class="cls-2" d="M306.5,273A6.48,6.48,0,0,1,301.91,262c13.16-13.16,23.61-16.56,32.83-19.56,9-2.92,16.72-5.44,27.68-16.39s13.47-18.71,16.39-27.68c3-9.22,6.4-19.67,19.56-32.83S422,149,431.2,146c9-2.92,16.72-5.44,27.68-16.4a6.48,6.48,0,1,1,9.17,9.17c-13.16,13.16-23.61,16.56-32.84,19.56-9,2.92-16.71,5.44-27.67,16.4s-13.48,18.7-16.4,27.67c-3,9.23-6.4,19.68-19.56,32.84S348,251.75,338.75,254.75c-9,2.92-16.71,5.44-27.67,16.39A6.44,6.44,0,0,1,306.5,273Z"></path><path class="cls-2" d="M351.18,317.73a6.49,6.49,0,0,1-4.58-11.07c13.15-13.16,23.6-16.56,32.83-19.56,9-2.91,16.71-5.43,27.67-16.39S420.58,252,423.49,243c3-9.22,6.41-19.67,19.56-32.83s23.61-16.56,32.84-19.56c9-2.91,16.71-5.43,27.67-16.39a6.48,6.48,0,0,1,9.17,9.17C499.57,196.57,489.12,200,479.9,203c-9,2.92-16.72,5.44-27.68,16.4s-13.48,18.71-16.4,27.68c-3,9.22-6.4,19.67-19.55,32.83s-23.61,16.55-32.83,19.55c-9,2.92-16.72,5.44-27.68,16.4A6.47,6.47,0,0,1,351.18,317.73Z"></path><path class="cls-2" d="M383.1,349.64a6.48,6.48,0,0,1-4.59-11.06C391.67,325.42,402.12,322,411.34,319c9-2.92,16.72-5.44,27.68-16.39s13.47-18.71,16.39-27.68c3-9.22,6.4-19.67,19.56-32.83s23.61-16.56,32.83-19.56c9-2.92,16.72-5.44,27.68-16.4a6.48,6.48,0,1,1,9.17,9.17c-13.16,13.16-23.62,16.56-32.84,19.56-9,2.92-16.71,5.44-27.67,16.4S470.66,270,467.74,279c-3,9.23-6.4,19.68-19.56,32.84s-23.61,16.55-32.83,19.55c-9,2.92-16.71,5.44-27.67,16.39A6.44,6.44,0,0,1,383.1,349.64Z"></path><path class="cls-2" d="M415,381.56a6.49,6.49,0,0,1-4.58-11.07c13.16-13.15,23.61-16.55,32.83-19.55,9-2.92,16.72-5.44,27.67-16.4s13.48-18.7,16.4-27.67c3-9.22,6.4-19.68,19.56-32.83s23.61-16.56,32.83-19.56c9-2.92,16.72-5.44,27.67-16.4a6.48,6.48,0,0,1,9.17,9.17c-13.16,13.16-23.61,16.56-32.83,19.56-9,2.92-16.72,5.44-27.68,16.39s-13.47,18.71-16.39,27.68c-3,9.22-6.4,19.67-19.56,32.83s-23.61,16.56-32.83,19.56c-9,2.91-16.72,5.43-27.67,16.39A6.47,6.47,0,0,1,415,381.56Z"></path><path class="cls-2" d="M446.93,413.48a6.49,6.49,0,0,1-4.58-11.07c13.15-13.16,23.6-16.56,32.83-19.56,9-2.91,16.71-5.43,27.67-16.39s13.48-18.7,16.39-27.68c3-9.22,6.4-19.67,19.56-32.83s23.61-16.56,32.84-19.56c9-2.91,16.71-5.43,27.67-16.39a6.48,6.48,0,0,1,9.17,9.17c-13.16,13.15-23.61,16.55-32.83,19.55-9,2.92-16.72,5.44-27.68,16.4s-13.48,18.71-16.4,27.68c-3,9.22-6.4,19.67-19.55,32.83s-23.61,16.55-32.83,19.55c-9,2.92-16.72,5.44-27.68,16.4A6.47,6.47,0,0,1,446.93,413.48Z"></path><path class="cls-2" d="M478.85,445.39a6.49,6.49,0,0,1-4.59-11.07c13.16-13.15,23.61-16.55,32.83-19.55,9-2.92,16.72-5.44,27.67-16.39s13.48-18.71,16.4-27.68c3-9.22,6.4-19.67,19.56-32.83s23.61-16.56,32.83-19.56c9-2.92,16.72-5.44,27.68-16.4a6.48,6.48,0,0,1,9.16,9.17c-13.15,13.16-23.61,16.56-32.83,19.56-9,2.92-16.71,5.44-27.67,16.4s-13.48,18.7-16.4,27.67c-3,9.22-6.4,19.68-19.56,32.84S520.32,424.1,511.1,427.1c-9,2.92-16.71,5.44-27.67,16.39A6.44,6.44,0,0,1,478.85,445.39Z"></path><path class="cls-2" d="M523.53,145.38A6.49,6.49,0,0,1,519,134.31c13.15-13.16,23.6-16.56,32.83-19.55,9-2.92,16.71-5.44,27.67-16.4s13.48-18.7,16.39-27.67c3-9.23,6.4-19.68,19.56-32.84S639,21.3,648.23,18.3c9-2.92,16.72-5.44,27.68-16.4a6.48,6.48,0,0,1,9.17,9.17c-13.16,13.15-23.61,16.56-32.84,19.55-9,2.92-16.71,5.44-27.67,16.4s-13.48,18.71-16.4,27.68c-3,9.22-6.4,19.67-19.55,32.83S565,124.09,555.79,127.09c-9,2.91-16.72,5.43-27.68,16.39A6.47,6.47,0,0,1,523.53,145.38Z"></path><path class="cls-2" d="M555.45,177.29a6.48,6.48,0,0,1-4.59-11.06c13.16-13.16,23.61-16.56,32.83-19.56,9-2.92,16.72-5.43,27.67-16.39s13.48-18.71,16.4-27.68c3-9.22,6.4-19.67,19.56-32.83s23.61-16.56,32.83-19.56c9-2.92,16.72-5.44,27.68-16.4A6.48,6.48,0,1,1,717,43c-13.15,13.16-23.61,16.56-32.83,19.56-9,2.92-16.72,5.44-27.67,16.4s-13.48,18.7-16.4,27.67c-3,9.23-6.4,19.68-19.56,32.84S596.92,156,587.7,159c-9,2.92-16.71,5.44-27.67,16.39A6.44,6.44,0,0,1,555.45,177.29Z"></path><path class="cls-2" d="M587.36,209.21a6.49,6.49,0,0,1-4.58-11.07c13.15-13.15,23.61-16.55,32.83-19.55,9-2.92,16.71-5.44,27.67-16.4s13.48-18.7,16.4-27.67c3-9.22,6.4-19.68,19.55-32.83s23.62-16.56,32.84-19.56c9-2.92,16.71-5.44,27.67-16.4a6.48,6.48,0,1,1,9.17,9.17c-13.16,13.16-23.61,16.56-32.83,19.56-9,2.92-16.72,5.44-27.68,16.39S674.92,129.56,672,138.53c-3,9.22-6.4,19.68-19.56,32.83s-23.61,16.56-32.83,19.56c-9,2.91-16.72,5.43-27.67,16.39A6.47,6.47,0,0,1,587.36,209.21Z"></path><path class="cls-2" d="M619.28,241.13a6.49,6.49,0,0,1-4.58-11.07c13.15-13.16,23.6-16.56,32.82-19.56,9-2.91,16.72-5.43,27.68-16.39s13.48-18.7,16.39-27.67c3-9.23,6.4-19.68,19.56-32.84S734.76,117,744,114.05c9-2.92,16.72-5.44,27.68-16.4a6.48,6.48,0,0,1,9.17,9.17C767.67,120,757.22,123.37,748,126.37c-9,2.92-16.71,5.44-27.67,16.4s-13.48,18.71-16.4,27.68c-3,9.22-6.4,19.67-19.56,32.83s-23.6,16.56-32.82,19.55c-9,2.92-16.72,5.44-27.68,16.4A6.47,6.47,0,0,1,619.28,241.13Z"></path><path class="cls-2" d="M651.2,273A6.48,6.48,0,0,1,646.61,262c13.16-13.16,23.61-16.56,32.83-19.56,9-2.92,16.72-5.44,27.67-16.39s13.48-18.71,16.4-27.68c3-9.22,6.4-19.67,19.56-32.83S766.68,149,775.9,146c9-2.92,16.72-5.44,27.68-16.4a6.48,6.48,0,1,1,9.16,9.17c-13.15,13.16-23.61,16.56-32.83,19.56-9,2.92-16.72,5.44-27.67,16.4s-13.48,18.7-16.4,27.67c-3,9.23-6.4,19.68-19.56,32.84s-23.61,16.55-32.83,19.55c-9,2.92-16.71,5.44-27.67,16.39A6.44,6.44,0,0,1,651.2,273Z"></path><path class="cls-2" d="M695.88,317.73a6.49,6.49,0,0,1-4.58-11.07c13.15-13.16,23.6-16.56,32.82-19.56,9-2.91,16.72-5.43,27.68-16.39S765.27,252,768.19,243c3-9.22,6.4-19.67,19.56-32.83s23.61-16.56,32.83-19.56c9-2.91,16.72-5.43,27.68-16.39a6.48,6.48,0,1,1,9.17,9.17C844.27,196.57,833.82,200,824.59,203c-9,2.92-16.71,5.44-27.67,16.4s-13.48,18.71-16.4,27.68c-3,9.22-6.4,19.67-19.56,32.83s-23.6,16.55-32.82,19.55c-9,2.92-16.72,5.44-27.68,16.4A6.47,6.47,0,0,1,695.88,317.73Z"></path><path class="cls-2" d="M727.8,349.64a6.48,6.48,0,0,1-4.59-11.06C736.37,325.42,746.82,322,756,319c9-2.92,16.72-5.44,27.67-16.39s13.48-18.71,16.4-27.68c3-9.22,6.4-19.67,19.56-32.83s23.61-16.56,32.83-19.56c9-2.92,16.72-5.44,27.68-16.4a6.48,6.48,0,0,1,9.16,9.17c-13.15,13.16-23.61,16.56-32.83,19.56-9,2.92-16.72,5.44-27.68,16.4S815.36,270,812.44,279c-3,9.23-6.4,19.68-19.56,32.84s-23.61,16.55-32.83,19.55c-9,2.92-16.71,5.44-27.67,16.39A6.44,6.44,0,0,1,727.8,349.64Z"></path><path class="cls-2" d="M759.71,381.56a6.49,6.49,0,0,1-4.58-11.07c13.15-13.15,23.61-16.55,32.83-19.55,9-2.92,16.71-5.44,27.67-16.4s13.48-18.7,16.39-27.67c3-9.22,6.41-19.68,19.56-32.83s23.61-16.56,32.84-19.56c9-2.92,16.71-5.44,27.67-16.4a6.48,6.48,0,0,1,9.17,9.17c-13.16,13.16-23.61,16.56-32.83,19.56-9,2.92-16.72,5.44-27.68,16.39s-13.48,18.71-16.39,27.68c-3,9.22-6.41,19.67-19.56,32.83S801.19,360.27,792,363.27c-9,2.91-16.72,5.43-27.67,16.39A6.47,6.47,0,0,1,759.71,381.56Z"></path><path class="cls-2" d="M791.63,413.48A6.49,6.49,0,0,1,787,402.41c13.16-13.16,23.61-16.56,32.83-19.56,9-2.91,16.72-5.43,27.68-16.39s13.47-18.7,16.39-27.68c3-9.22,6.4-19.67,19.56-32.83s23.61-16.56,32.83-19.56c9-2.91,16.72-5.43,27.68-16.39a6.48,6.48,0,1,1,9.17,9.17c-13.16,13.15-23.61,16.55-32.84,19.55-9,2.92-16.71,5.44-27.67,16.4s-13.48,18.71-16.4,27.68c-3,9.22-6.4,19.67-19.56,32.83s-23.6,16.55-32.83,19.55c-9,2.92-16.71,5.44-27.67,16.4A6.47,6.47,0,0,1,791.63,413.48Z"></path><path class="cls-2" d="M823.54,445.39A6.49,6.49,0,0,1,819,434.32c13.16-13.15,23.61-16.55,32.83-19.55,9-2.92,16.72-5.44,27.67-16.39s13.48-18.71,16.4-27.68c3-9.22,6.4-19.67,19.56-32.83s23.61-16.56,32.83-19.56c9-2.92,16.72-5.44,27.68-16.4a6.48,6.48,0,0,1,9.16,9.17c-13.15,13.16-23.61,16.56-32.83,19.56-9,2.92-16.72,5.44-27.68,16.4s-13.47,18.7-16.39,27.67c-3,9.22-6.4,19.68-19.56,32.84S865,424.1,855.8,427.1c-9,2.92-16.71,5.44-27.67,16.39A6.47,6.47,0,0,1,823.54,445.39Z"></path></g></g></g></svg>