<svg xmlns="http://www.w3.org/2000/svg" xmlns:xlink="http://www.w3.org/1999/xlink" id="Layer_1" x="0px" y="0px" viewBox="0 0 1912.6 951.4" style="enable-background:new 0 0 1912.6 951.4;" xml:space="preserve">
<style type="text/css">
	.st0{fill:url(#SVGID_1_);enable-background:new    ;}
</style>
<linearGradient id="SVGID_1_" gradientUnits="userSpaceOnUse" x1="522.2138" y1="-0.1178" x2="522.2089" y2="0.5072" gradientTransform="matrix(1905.1761 -133.6296 57.4139 818.5588 -993981.4375 70061.7656)">
	<stop offset="0" style="stop-color:#F2FAFD"></stop>
	<stop offset="1" style="stop-color:#FFFFFF"></stop>
</linearGradient>
<path class="st0" d="M1715,282.2c-225.9-135.2-482.7-26.3-599.5,34s-296.9,66.9-393-42.8S522,123.4,393.7,169.1  c-128.4,45.7-128.7-6-239.1-46.4C84.4,97,30.2,126.6,0,151.5v689.2l0.2,5.2c0,0,208.4,40.9,325.4-35.7s207.8-356.6,424.5-143.6  s575.2,95.3,789.7,7.1s88.6,81.4,251.1,136.2C1953.4,864.7,1940.9,417.4,1715,282.2z"></path>
</svg>